<svg width="35" height="43" viewBox="0 0 35 43" fill="none" xmlns="http://www.w3.org/2000/svg">
<path d="M19.1411 16.7848C19.4574 15.8979 20.7971 15.8979 21.1134 16.7848L22.9678 21.9905C23.3759 23.1348 24.0636 24.1746 24.9764 25.0273C25.8891 25.88 27.0017 26.5223 28.2261 26.9032L33.7921 28.6367C34.7409 28.9323 34.7409 30.1847 33.7921 30.4803L28.2233 32.2137C26.9991 32.5953 25.8868 33.2381 24.9746 34.0913C24.0624 34.9445 23.3753 35.9846 22.9678 37.1292L21.1134 42.3322C21.0452 42.5264 20.9132 42.6955 20.7361 42.8154C20.559 42.9353 20.3459 42.9998 20.1273 42.9998C19.9086 42.9998 19.6955 42.9353 19.5185 42.8154C19.3414 42.6955 19.2093 42.5264 19.1411 42.3322L17.2868 37.1265C16.8789 35.9824 16.1916 34.9429 15.2794 34.0902C14.3672 33.2374 13.2551 32.595 12.0313 32.2137L6.46239 30.4803C6.25464 30.4166 6.07373 30.2931 5.94547 30.1276C5.81721 29.962 5.74815 29.7629 5.74815 29.5585C5.74815 29.3541 5.81721 29.1549 5.94547 28.9894C6.07373 28.8238 6.25464 28.7004 6.46239 28.6367L12.0313 26.9032C13.2551 26.5219 14.3672 25.8795 15.2794 25.0268C16.1916 24.1741 16.8789 23.1345 17.2868 21.9905L19.1411 16.7848ZM8.03501 3.08123C8.07624 2.96484 8.15565 2.86356 8.26198 2.79178C8.36829 2.72 8.49611 2.68136 8.62726 2.68136C8.75841 2.68136 8.88623 2.72 8.99255 2.79178C9.09887 2.86356 9.17829 2.96484 9.21951 3.08123L10.3321 6.2041C10.8295 7.59623 11.9968 8.68735 13.486 9.15229L16.8268 10.1924C16.9513 10.2309 17.0596 10.3051 17.1364 10.4045C17.2132 10.5039 17.2545 10.6234 17.2545 10.746C17.2545 10.8686 17.2132 10.9881 17.1364 11.0874C17.0596 11.1868 16.9513 11.2611 16.8268 11.2996L13.486 12.3397C12.7515 12.5684 12.0841 12.9539 11.5367 13.4657C10.9893 13.9774 10.5768 14.6013 10.3321 15.2878L9.21951 18.4107C9.17829 18.5271 9.09887 18.6284 8.99255 18.7002C8.88623 18.772 8.75841 18.8106 8.62726 18.8106C8.49611 18.8106 8.36829 18.772 8.26198 18.7002C8.15565 18.6284 8.07624 18.5271 8.03501 18.4107L6.92239 15.2878C6.67768 14.6013 6.26527 13.9774 5.71784 13.4657C5.17041 12.9539 4.503 12.5684 3.76851 12.3397L0.427763 11.2996C0.303259 11.2611 0.194915 11.1868 0.118123 11.0874C0.041332 10.9881 0 10.8686 0 10.746C0 10.6234 0.041332 10.5039 0.118123 10.4045C0.194915 10.3051 0.303259 10.2309 0.427763 10.1924L3.76851 9.15229C4.503 8.92354 5.17041 8.53802 5.71784 8.02629C6.26527 7.51457 6.67768 6.89069 6.92239 6.2041L8.03501 3.08123ZM28.3584 0.262038C28.3868 0.185515 28.44 0.11916 28.5105 0.0721976C28.5811 0.0252354 28.6656 0 28.7523 0C28.8389 0 28.9234 0.0252354 28.994 0.0721976C29.0646 0.11916 29.1178 0.185515 29.1461 0.262038L29.8879 2.34216C30.2185 3.27204 30.9976 4.00035 31.9924 4.30941L34.2176 5.00279C34.2995 5.02932 34.3705 5.07903 34.4207 5.14502C34.471 5.211 34.498 5.28998 34.498 5.37098C34.498 5.45197 34.471 5.53095 34.4207 5.59693C34.3705 5.66292 34.2995 5.71263 34.2176 5.73916L31.9924 6.43254C31.5022 6.58498 31.0567 6.84216 30.6914 7.18365C30.3261 7.52514 30.051 7.94154 29.8879 8.39979L29.1461 10.4799C29.1178 10.5564 29.0646 10.6228 28.994 10.6698C28.9234 10.7167 28.8389 10.742 28.7523 10.742C28.6656 10.742 28.5811 10.7167 28.5105 10.6698C28.44 10.6228 28.3868 10.5564 28.3584 10.4799L27.6166 8.39979C27.4536 7.94154 27.1784 7.52514 26.8131 7.18365C26.4478 6.84216 26.0024 6.58498 25.5121 6.43254L23.2898 5.73916C23.2079 5.71263 23.1369 5.66292 23.0867 5.59693C23.0364 5.53095 23.0094 5.45197 23.0094 5.37098C23.0094 5.28998 23.0364 5.211 23.0867 5.14502C23.1369 5.07903 23.2079 5.02932 23.2898 5.00279L25.515 4.30941C26.5098 4.00035 27.2889 3.27204 27.6195 2.34216L28.3584 0.264726V0.262038Z" fill="#795AFF"/>
</svg>
