<svg width="45" height="36" viewBox="0 0 45 36" fill="none" xmlns="http://www.w3.org/2000/svg">
<path d="M4.5 36C3.2625 36 2.2035 35.5597 1.323 34.6792C0.441 33.7972 0 32.7375 0 31.5V4.5C0 3.2625 0.441 2.2035 1.323 1.323C2.2035 0.441 3.2625 0 4.5 0H40.5C41.7375 0 42.7972 0.441 43.6792 1.323C44.5597 2.2035 45 3.2625 45 4.5V31.5C45 32.7375 44.5597 33.7972 43.6792 34.6792C42.7972 35.5597 41.7375 36 40.5 36H4.5ZM4.5 31.5H28.125V23.625H4.5V31.5ZM32.625 31.5H40.5V11.25H32.625V31.5ZM4.5 19.125H28.125V11.25H4.5V19.125Z" fill="#795AFF"/>
</svg>
