<svg width="45" height="45" viewBox="0 0 45 45" fill="none" xmlns="http://www.w3.org/2000/svg">
<path d="M22.5 45C19.425 45 16.5187 44.409 13.7812 43.227C11.0437 42.0465 8.6535 40.434 6.6105 38.3895C4.566 36.3465 2.9535 33.9562 1.773 31.2188C0.591 28.4813 0 25.575 0 22.5C0 19.3875 0.609 16.4625 1.827 13.725C3.0465 10.9875 4.69725 8.60625 6.77925 6.58125C8.85975 4.55625 11.2875 2.95275 14.0625 1.77075C16.8375 0.59025 19.8 0 22.95 0C25.95 0 28.7813 0.516 31.4438 1.548C34.1063 2.5785 36.4403 4.0035 38.4458 5.823C40.4528 7.641 42.0465 9.79725 43.227 12.2917C44.409 14.7847 45 17.475 45 20.3625C45 24.675 43.6875 27.984 41.0625 30.2895C38.4375 32.5965 35.25 33.75 31.5 33.75H27.3375C27 33.75 26.766 33.8438 26.6355 34.0312C26.5035 34.2188 26.4375 34.425 26.4375 34.65C26.4375 35.1 26.7188 35.7465 27.2812 36.5895C27.8438 37.434 28.125 38.4 28.125 39.4875C28.125 41.3625 27.609 42.75 26.577 43.65C25.5465 44.55 24.1875 45 22.5 45ZM10.125 24.75C11.1 24.75 11.9062 24.4312 12.5437 23.7937C13.1812 23.1562 13.5 22.35 13.5 21.375C13.5 20.4 13.1812 19.5938 12.5437 18.9563C11.9062 18.3188 11.1 18 10.125 18C9.15 18 8.34375 18.3188 7.70625 18.9563C7.06875 19.5938 6.75 20.4 6.75 21.375C6.75 22.35 7.06875 23.1562 7.70625 23.7937C8.34375 24.4312 9.15 24.75 10.125 24.75ZM16.875 15.75C17.85 15.75 18.6562 15.4312 19.2937 14.7937C19.9312 14.1562 20.25 13.35 20.25 12.375C20.25 11.4 19.9312 10.5938 19.2937 9.95625C18.6562 9.31875 17.85 9 16.875 9C15.9 9 15.0938 9.31875 14.4563 9.95625C13.8188 10.5938 13.5 11.4 13.5 12.375C13.5 13.35 13.8188 14.1562 14.4563 14.7937C15.0938 15.4312 15.9 15.75 16.875 15.75ZM28.125 15.75C29.1 15.75 29.9062 15.4312 30.5437 14.7937C31.1812 14.1562 31.5 13.35 31.5 12.375C31.5 11.4 31.1812 10.5938 30.5437 9.95625C29.9062 9.31875 29.1 9 28.125 9C27.15 9 26.3438 9.31875 25.7063 9.95625C25.0688 10.5938 24.75 11.4 24.75 12.375C24.75 13.35 25.0688 14.1562 25.7063 14.7937C26.3438 15.4312 27.15 15.75 28.125 15.75ZM34.875 24.75C35.85 24.75 36.6562 24.4312 37.2938 23.7937C37.9313 23.1562 38.25 22.35 38.25 21.375C38.25 20.4 37.9313 19.5938 37.2938 18.9563C36.6562 18.3188 35.85 18 34.875 18C33.9 18 33.0938 18.3188 32.4562 18.9563C31.8187 19.5938 31.5 20.4 31.5 21.375C31.5 22.35 31.8187 23.1562 32.4562 23.7937C33.0938 24.4312 33.9 24.75 34.875 24.75Z" fill="#795AFF"/>
</svg>
