<svg width="54" height="57" viewBox="0 0 54 57" fill="none" xmlns="http://www.w3.org/2000/svg">
<path d="M26.5794 20.4131C24.7046 20.4131 22.9489 21.1405 21.6196 22.4698C20.2965 23.7991 19.5629 25.5548 19.5629 27.4296C19.5629 29.3045 20.2965 31.0602 21.6196 32.3895C22.9489 33.7125 24.7046 34.4461 26.5794 34.4461C28.4543 34.4461 30.21 33.7125 31.5393 32.3895C32.8623 31.0602 33.596 29.3045 33.596 27.4296C33.596 25.5548 32.8623 23.7991 31.5393 22.4698C30.89 21.8155 30.1172 21.2968 29.2657 20.9437C28.4143 20.5906 27.5012 20.4103 26.5794 20.4131ZM52.4321 35.1798L48.3313 31.6746C48.5256 30.4833 48.626 29.2668 48.626 28.0567C48.626 26.8465 48.5256 25.6238 48.3313 24.4387L52.4321 20.9335C52.7418 20.6684 52.9636 20.3151 53.0677 19.9209C53.1719 19.5266 53.1536 19.11 53.0152 18.7264L52.9588 18.5634C51.8302 15.4074 50.1391 12.4821 47.9676 9.92909L47.8547 9.79741C47.591 9.48736 47.2396 9.26447 46.8467 9.15814C46.4538 9.0518 46.0379 9.067 45.6538 9.20173L40.5623 11.0139C38.6812 9.47136 36.5869 8.25491 34.317 7.40841L33.3326 2.08489C33.2583 1.68385 33.0638 1.31491 32.7748 1.02707C32.4859 0.739231 32.1162 0.546126 31.7148 0.473411L31.5455 0.442059C28.285 -0.147353 24.8488 -0.147353 21.5882 0.442059L21.4189 0.473411C21.0176 0.546126 20.6479 0.739231 20.359 1.02707C20.07 1.31491 19.8755 1.68385 19.8012 2.08489L18.8105 7.43349C16.5621 8.28674 14.4676 9.50024 12.6091 11.0264L7.47996 9.20173C7.096 9.06593 6.67981 9.05018 6.28669 9.15658C5.89356 9.26298 5.54212 9.48649 5.27907 9.79741L5.16621 9.92909C2.9985 12.4848 1.30788 15.4094 0.175012 18.5634L0.118579 18.7264C-0.163586 19.5102 0.0684164 20.388 0.701721 20.9335L4.85269 24.4763C4.65831 25.6551 4.56425 26.859 4.56425 28.0504C4.56425 29.2543 4.65831 30.4582 4.85269 31.6245L0.714262 35.1672C0.40448 35.4324 0.182765 35.7856 0.0785991 36.1799C-0.0255669 36.5742 -0.00724827 36.9908 0.13112 37.3744L0.187553 37.5374C1.32249 40.6914 2.99667 43.6071 5.17875 46.1717L5.29161 46.3034C5.55531 46.6134 5.90676 46.8363 6.29965 46.9426C6.69254 47.049 7.10843 47.0338 7.4925 46.899L12.6216 45.0744C14.4902 46.6106 16.572 47.8271 18.823 48.6673L19.8137 54.0159C19.888 54.4169 20.0825 54.7859 20.3715 55.0737C20.6605 55.3615 21.0302 55.5546 21.4315 55.6274L21.6008 55.6587C24.8934 56.2513 28.2654 56.2513 31.5581 55.6587L31.7274 55.6274C32.1287 55.5546 32.4984 55.3615 32.7874 55.0737C33.0763 54.7859 33.2709 54.4169 33.3451 54.0159L34.3296 48.6924C36.5994 47.8396 38.6937 46.6294 40.5748 45.0869L45.6664 46.899C46.0503 47.0348 46.4665 47.0506 46.8596 46.9442C47.2528 46.8378 47.6042 46.6143 47.8673 46.3034L47.9801 46.1717C50.1622 43.5946 51.8364 40.6914 52.9713 37.5374L53.0277 37.3744C53.2974 36.5969 53.0654 35.7253 52.4321 35.1798ZM26.5794 38.4529C20.4909 38.4529 15.5562 33.5181 15.5562 27.4296C15.5562 21.3411 20.4909 16.4064 26.5794 16.4064C32.6679 16.4064 37.6027 21.3411 37.6027 27.4296C37.6027 33.5181 32.6679 38.4529 26.5794 38.4529Z" fill="#795AFF"/>
</svg>
