<svg width="198" height="52" viewBox="0 0 198 52" fill="none" xmlns="http://www.w3.org/2000/svg">
<g opacity="0.5">
<path d="M21.8142 0H0V52L21.8142 0Z" fill="white"/>
<path d="M37.1623 0H58.9481V52L37.1623 0Z" fill="white"/>
<path d="M29.4883 19.1653L43.3726 52H34.2632L30.1136 41.5462H19.9525L29.4883 19.1653Z" fill="white"/>
<path d="M94.5363 33.0687L97.1086 40.4203C97.1938 40.6045 97.3217 40.6895 97.5491 40.6895H102.495C102.765 40.6895 102.807 40.562 102.765 40.2929L92.5468 12.0052C92.5041 11.7786 92.4615 11.7361 92.2341 11.7361H86.0949C85.9244 11.7361 85.8249 11.8635 85.8249 12.0477C85.7396 13.535 85.6117 13.9883 85.4269 14.4274L76.3176 40.2504C76.2749 40.562 76.3744 40.6895 76.6302 40.6895H81.0499C81.3199 40.6895 81.4478 40.6045 81.5473 40.3353L83.9774 33.0687H94.5363ZM85.3843 28.2667C86.7202 24.2438 88.4824 19.0877 89.1929 16.1414H89.2356C90.1167 19.2294 92.1915 25.3487 93.1294 28.2667H85.3843Z" fill="white"/>
<path d="M115.9 41.1286C118.558 41.1286 121.386 40.647 124.257 39.4146C124.484 39.3296 124.527 39.2305 124.527 39.018C124.441 38.2248 124.342 37.0774 124.342 36.1991V9.5688C124.342 9.39882 124.342 9.31383 124.129 9.31383H119.311C119.126 9.31383 119.041 9.39882 119.041 9.62546V18.6486C118.288 18.5636 117.762 18.5211 117.137 18.5211C109.363 18.5211 104.588 23.6347 104.588 30.0232C104.588 37.4315 109.491 41.1286 115.9 41.1286ZM119.041 36.1991C118.245 36.4541 117.364 36.5533 116.469 36.5533C112.944 36.5533 110.06 34.5702 110.06 29.754C110.06 25.4903 113.03 22.969 116.966 22.969C117.762 22.969 118.458 23.054 119.041 23.2806V36.1991Z" fill="white"/>
<path d="M139.896 18.5211C133.259 18.5211 129.152 23.5922 129.152 29.8532C129.152 35.4484 132.421 41.1286 139.796 41.1286C146.035 41.1286 150.412 36.5533 150.412 29.7115C150.412 23.6772 146.703 18.5211 139.896 18.5211ZM139.626 22.969C143.377 22.969 144.969 26.1844 144.969 29.8532C144.969 34.386 142.624 36.6383 139.896 36.6383C136.528 36.6383 134.538 33.8194 134.538 29.754C134.538 25.5753 136.656 22.969 139.626 22.969Z" fill="white"/>
<path d="M155.393 9.31383C155.208 9.31383 155.08 9.39882 155.08 9.62546V39.7687C155.08 39.8962 155.208 40.1229 155.393 40.1654C157.51 40.817 159.727 41.1286 162.015 41.1286C168.567 41.1286 174.933 37.0774 174.933 28.9183C174.933 23.0115 170.869 18.5211 164.502 18.5211C163.038 18.5211 161.674 18.7478 160.48 19.1444L160.424 9.66795C160.424 9.35632 160.338 9.31383 160.026 9.31383H155.393ZM169.49 29.4566C169.49 34.3435 166.136 36.6383 162.513 36.6383C161.759 36.6383 161.091 36.5958 160.48 36.4116V23.5497C161.177 23.2806 162.015 23.054 163.564 23.054C167.06 23.054 169.49 25.2637 169.49 29.4566Z" fill="white"/>
<path d="M192.912 31.0431C195.072 31.0431 196.849 31.0006 197.46 30.8589C197.687 30.8164 197.773 30.7314 197.815 30.5473C197.943 30.0657 198 29.0599 198 27.8276C198 23.6347 195.47 18.5211 188.933 18.5211C182.254 18.5211 178.545 23.9464 178.545 30.0657C178.545 35.4909 181.416 41.1286 189.459 41.1286C192.472 41.1286 194.419 40.647 196.096 39.8537C196.266 39.7687 196.351 39.6271 196.351 39.3721V35.7034C196.351 35.4909 196.224 35.4484 196.096 35.5334C194.419 36.2416 192.6 36.5958 190.61 36.5958C186.105 36.5958 184.059 34.1169 183.931 31.0431H192.912ZM183.931 27.2468C184.286 25.0937 185.65 22.7565 188.706 22.7565C192.074 22.7565 192.955 25.5753 192.955 26.8502C192.955 26.8927 192.955 27.0768 192.955 27.2043C192.77 27.2468 192.202 27.2468 190.525 27.2468H183.931Z" fill="white"/>
</g>
</svg>
