<svg width="230" height="49" viewBox="0 0 230 49" fill="none" xmlns="http://www.w3.org/2000/svg">
<g opacity="0.5">
<path d="M95.6516 9.8V39.2H90.5421V16.1292H90.4739L81.3448 39.2H77.9384L68.6049 16.1292H68.5367V39.2H63.8359V9.8H71.1937L79.6416 31.5778H79.7778L88.7026 9.8H95.6516ZM99.8756 12.0458C99.8756 11.2292 100.148 10.5486 100.761 10.0042C101.374 9.45972 102.056 9.1875 102.873 9.1875C103.759 9.1875 104.508 9.45972 105.053 10.0042C105.598 10.5486 105.939 11.2292 105.939 12.0458C105.939 12.8625 105.666 13.5431 105.053 14.0875C104.44 14.6319 103.759 14.9042 102.873 14.9042C101.988 14.9042 101.306 14.6319 100.761 14.0875C100.216 13.475 99.8756 12.7944 99.8756 12.0458ZM105.394 18.1028V39.2H100.421V18.1028H105.394ZM120.45 35.5931C121.2 35.5931 122.017 35.4569 122.903 35.0486C123.788 34.7083 124.606 34.2319 125.355 33.6875V38.3153C124.538 38.7917 123.652 39.1319 122.63 39.3361C121.608 39.5403 120.518 39.6764 119.292 39.6764C116.158 39.6764 113.637 38.7236 111.73 36.75C109.754 34.7764 108.8 32.2583 108.8 29.2639C108.8 25.8611 109.822 23.0708 111.798 20.8931C113.774 18.7153 116.567 17.6264 120.246 17.6264C121.2 17.6264 122.153 17.7625 123.039 17.9667C123.993 18.1708 124.742 18.5111 125.287 18.7833V23.5472C124.538 23.0028 123.72 22.5264 122.971 22.2542C122.153 21.9819 121.336 21.7778 120.518 21.7778C118.543 21.7778 116.976 22.3903 115.749 23.6833C114.523 24.9764 113.978 26.6778 113.978 28.8556C113.978 30.9653 114.591 32.6667 115.749 33.8236C116.908 34.9806 118.475 35.5931 120.45 35.5931ZM139.458 17.7625C139.867 17.7625 140.207 17.7625 140.548 17.8306C140.889 17.8986 141.161 17.9667 141.366 18.0347V23.0708C141.093 22.8667 140.752 22.6625 140.207 22.5264C139.662 22.3903 139.117 22.2542 138.368 22.2542C137.142 22.2542 136.12 22.7986 135.302 23.8194C134.485 24.8403 134.008 26.4056 134.008 28.5833V39.2H129.034V18.1028H134.008V21.4375H134.076C134.553 20.2806 135.234 19.3958 136.12 18.7153C137.073 18.1028 138.163 17.7625 139.458 17.7625ZM141.638 28.9917C141.638 25.5208 142.66 22.7306 144.568 20.6889C146.543 18.6472 149.268 17.6264 152.743 17.6264C156.013 17.6264 158.602 18.5792 160.441 20.5528C162.281 22.5264 163.235 25.1806 163.235 28.5153C163.235 31.9181 162.213 34.6403 160.305 36.6819C158.329 38.7236 155.672 39.7444 152.266 39.7444C148.996 39.7444 146.407 38.7917 144.499 36.8861C142.592 34.9125 141.638 32.2583 141.638 28.9917ZM146.816 28.7875C146.816 30.9653 147.293 32.6667 148.315 33.8236C149.336 34.9806 150.767 35.5931 152.607 35.5931C154.378 35.5931 155.809 35.0486 156.762 33.8236C157.716 32.6667 158.193 30.9653 158.193 28.6514C158.193 26.4056 157.716 24.7042 156.762 23.4792C155.809 22.3222 154.378 21.7097 152.675 21.7097C150.835 21.7097 149.473 22.3222 148.451 23.5472C147.293 24.8403 146.816 26.5417 146.816 28.7875ZM170.661 23.6833C170.661 24.3639 170.865 24.9764 171.342 25.3847C171.819 25.7931 172.773 26.2694 174.339 26.8819C176.315 27.6986 177.746 28.5833 178.495 29.5361C179.313 30.5569 179.722 31.7139 179.722 33.1431C179.722 35.1167 178.972 36.6819 177.405 37.9069C175.906 39.1319 173.794 39.6764 171.206 39.6764C170.32 39.6764 169.366 39.5403 168.276 39.3361C167.186 39.1319 166.3 38.8597 165.551 38.5194V33.6194C166.437 34.2319 167.459 34.7764 168.48 35.1167C169.502 35.4569 170.456 35.6611 171.342 35.6611C172.432 35.6611 173.318 35.525 173.794 35.1847C174.339 34.8444 174.612 34.3681 174.612 33.6194C174.612 32.9389 174.339 32.3944 173.794 31.85C173.249 31.3736 172.159 30.8292 170.661 30.2167C168.821 29.4681 167.527 28.5833 166.777 27.6306C166.028 26.6778 165.619 25.4528 165.619 23.9556C165.619 22.05 166.368 20.4847 167.867 19.2597C169.366 18.0347 171.342 17.4222 173.726 17.4222C174.476 17.4222 175.293 17.4903 176.179 17.6944C177.065 17.8986 177.882 18.1028 178.495 18.3069V23.1389C177.814 22.7306 177.065 22.3222 176.179 21.9819C175.293 21.6417 174.408 21.5056 173.59 21.5056C172.636 21.5056 171.887 21.7097 171.41 22.05C170.933 22.5264 170.661 23.0028 170.661 23.6833ZM181.834 28.9917C181.834 25.5208 182.855 22.7306 184.763 20.6889C186.739 18.6472 189.464 17.6264 192.938 17.6264C196.209 17.6264 198.797 18.5792 200.637 20.5528C202.476 22.5264 203.43 25.1806 203.43 28.5153C203.43 31.9181 202.408 34.6403 200.501 36.6819C198.525 38.7236 195.868 39.7444 192.461 39.7444C189.191 39.7444 186.602 38.7917 184.695 36.8861C182.855 34.9125 181.834 32.2583 181.834 28.9917ZM187.011 28.7875C187.011 30.9653 187.488 32.6667 188.51 33.8236C189.532 34.9806 190.963 35.5931 192.802 35.5931C194.573 35.5931 196.004 35.0486 196.958 33.8236C197.912 32.6667 198.389 30.9653 198.389 28.6514C198.389 26.4056 197.912 24.7042 196.958 23.4792C196.004 22.3222 194.573 21.7097 192.87 21.7097C191.031 21.7097 189.668 22.3222 188.646 23.5472C187.556 24.8403 187.011 26.5417 187.011 28.7875ZM219.985 22.1861H212.559V39.2H207.518V22.1861H203.975V18.1028H207.518V15.1764C207.518 12.9986 208.267 11.1611 209.698 9.73195C211.129 8.30278 212.968 7.62222 215.216 7.62222C215.829 7.62222 216.374 7.69028 216.851 7.69028C217.328 7.69028 217.737 7.82639 218.078 7.9625V12.25C217.941 12.1819 217.601 12.0458 217.192 11.9097C216.783 11.7736 216.306 11.7056 215.761 11.7056C214.739 11.7056 213.922 12.0458 213.377 12.6583C212.832 13.2708 212.559 14.2917 212.559 15.5167V18.0347H219.985V13.2708L224.959 11.7736V18.0347H230V22.1181H224.959V31.9861C224.959 33.2792 225.231 34.1639 225.64 34.7083C226.117 35.2528 226.866 35.525 227.888 35.525C228.161 35.525 228.501 35.4569 228.91 35.3208C229.319 35.1847 229.659 35.0486 229.932 34.8444V38.9278C229.591 39.1319 229.114 39.2681 228.365 39.4042C227.616 39.5403 226.934 39.6083 226.185 39.6083C224.073 39.6083 222.506 39.0639 221.484 37.975C220.462 36.8861 219.917 35.1847 219.917 32.9389L219.985 22.1861Z" fill="white"/>
<path d="M23.2998 0H0V23.275H23.2998V0Z" fill="white"/>
<path d="M49.0521 0H25.7524V23.275H49.0521V0Z" fill="white"/>
<path d="M23.2998 25.725H0V49H23.2998V25.725Z" fill="white"/>
<path d="M49.0521 25.725H25.7524V49H49.0521V25.725Z" fill="white"/>
</g>
</svg>
