<svg width="92" height="92" viewBox="0 0 92 92" fill="none" xmlns="http://www.w3.org/2000/svg">
<g opacity="0.5">
<path d="M46.0028 4.97145C34.6771 4.97145 24.4203 9.56537 16.9943 16.9971C9.56536 24.4118 4.97427 34.6743 4.97427 46.0057C4.97427 57.3286 9.56536 67.5839 16.9943 75.0015C24.4203 82.4233 34.6771 87.0257 46.0028 87.0257C57.3314 87.0257 67.5938 82.4233 75.0086 75.0015C82.4346 67.5839 87.0158 57.3286 87.0158 46.0057C87.0158 34.6743 82.4346 24.4118 75.0086 16.9971C67.5938 9.56537 57.3314 4.97145 46.0028 4.97145ZM46.0028 0C71.4044 0 92 20.5984 92 46.0057C92 71.4044 71.4044 92 46.0028 92C20.6041 92 0 71.4044 0 46.0057C0 20.5984 20.6041 0 46.0028 0Z" fill="white"/>
<path d="M24.2468 45.6308C24.2468 42.95 22.4681 41.4272 19.9498 41.4272H18.4086V49.8373H19.906C22.2475 49.8373 24.2468 48.5648 24.2468 45.6308ZM51.6619 48.6567L40.3079 57.5971L29.9309 49.4273C28.4335 53.0244 24.8152 55.5228 20.6483 55.5228H11.7673V35.7388H20.6483C25.3045 35.7388 28.6598 38.6996 29.9281 41.8542L40.3079 33.6929L44.1524 36.7187L34.6394 44.1957L36.4676 45.6266L45.9778 38.1539L49.828 41.1712L40.3164 48.6567L42.1418 50.0904L51.6619 42.6036V35.7388H58.5634V49.7482H65.4479V55.5468H51.6619V48.6567ZM74.1903 49.7511H81.072V55.5468H67.2818V35.7388H74.1903V49.7511Z" fill="white"/>
</g>
</svg>
