<svg width="62" height="45" viewBox="0 0 62 45" fill="none" xmlns="http://www.w3.org/2000/svg">
<path fill-rule="evenodd" clip-rule="evenodd" d="M43.7454 25.4891C47.57 28.0853 50.25 31.6028 50.25 36.2928V44.6678H58.625C60.1604 44.6678 61.4167 43.4116 61.4167 41.8762V36.2928C61.4167 30.207 51.4504 26.6058 43.7454 25.4891Z" fill="#795AFF"/>
<path d="M22.3334 22.3333C28.5006 22.3333 33.5 17.3338 33.5 11.1667C33.5 4.99949 28.5006 0 22.3334 0C16.1662 0 11.1667 4.99949 11.1667 11.1667C11.1667 17.3338 16.1662 22.3333 22.3334 22.3333Z" fill="#795AFF"/>
<path fill-rule="evenodd" clip-rule="evenodd" d="M39.0833 22.3333C45.2529 22.3333 50.25 17.3363 50.25 11.1667C50.25 4.99708 45.2529 0 39.0833 0C37.7713 0 36.5429 0.279166 35.3704 0.669999C37.7727 3.64094 39.0832 7.346 39.0832 11.1667C39.0832 14.9873 37.7727 18.6924 35.3704 21.6633C36.5429 22.0542 37.7713 22.3333 39.0833 22.3333ZM22.3333 25.125C14.8796 25.125 0 28.8658 0 36.2917V41.875C0 43.4104 1.25625 44.6667 2.79167 44.6667H41.875C43.4104 44.6667 44.6667 43.4104 44.6667 41.875V36.2917C44.6667 28.8658 29.7871 25.125 22.3333 25.125Z" fill="#795AFF"/>
</svg>
