<svg width="254" height="78" viewBox="0 0 254 78" fill="none" xmlns="http://www.w3.org/2000/svg">
<path d="M74.23 34.13C74.23 35.4367 73.915 36.6617 73.285 37.805C72.6783 38.9483 71.71 39.87 70.38 40.57C69.0733 41.27 67.4167 41.62 65.41 41.62H61.315V51H56.415V26.57H65.41C67.3 26.57 68.91 26.8967 70.24 27.55C71.57 28.2033 72.5617 29.1017 73.215 30.245C73.8917 31.3883 74.23 32.6833 74.23 34.13ZM65.2 37.665C66.5533 37.665 67.5567 37.3617 68.21 36.755C68.8633 36.125 69.19 35.25 69.19 34.13C69.19 31.75 67.86 30.56 65.2 30.56H61.315V37.665H65.2ZM79.1439 29.3C78.2806 29.3 77.5573 29.0317 76.9739 28.495C76.4139 27.935 76.1339 27.2467 76.1339 26.43C76.1339 25.6133 76.4139 24.9367 76.9739 24.4C77.5573 23.84 78.2806 23.56 79.1439 23.56C80.0073 23.56 80.7189 23.84 81.2789 24.4C81.8623 24.9367 82.1539 25.6133 82.1539 26.43C82.1539 27.2467 81.8623 27.935 81.2789 28.495C80.7189 29.0317 80.0073 29.3 79.1439 29.3ZM81.5589 31.61V51H76.6589V31.61H81.5589ZM96.0602 51L92.0702 44.98L88.5352 51H83.2852L89.6202 41.27L83.2152 31.61H88.7452L92.7002 37.595L96.2702 31.61H101.52L95.1502 41.27L101.59 51H96.0602ZM121.227 40.885C121.227 41.585 121.18 42.215 121.087 42.775H106.912C107.028 44.175 107.518 45.2717 108.382 46.065C109.245 46.8583 110.307 47.255 111.567 47.255C113.387 47.255 114.682 46.4733 115.452 44.91H120.737C120.177 46.7767 119.103 48.3167 117.517 49.53C115.93 50.72 113.982 51.315 111.672 51.315C109.805 51.315 108.125 50.9067 106.632 50.09C105.162 49.25 104.007 48.0717 103.167 46.555C102.35 45.0383 101.942 43.2883 101.942 41.305C101.942 39.2983 102.35 37.5367 103.167 36.02C103.983 34.5033 105.127 33.3367 106.597 32.52C108.067 31.7033 109.758 31.295 111.672 31.295C113.515 31.295 115.16 31.6917 116.607 32.485C118.077 33.2783 119.208 34.41 120.002 35.88C120.818 37.3267 121.227 38.995 121.227 40.885ZM116.152 39.485C116.128 38.225 115.673 37.2217 114.787 36.475C113.9 35.705 112.815 35.32 111.532 35.32C110.318 35.32 109.292 35.6933 108.452 36.44C107.635 37.1633 107.133 38.1783 106.947 39.485H116.152ZM128.653 25.1V51H123.753V25.1H128.653ZM157.549 34.13C157.549 35.4367 157.234 36.6617 156.604 37.805C155.997 38.9483 155.029 39.87 153.699 40.57C152.392 41.27 150.736 41.62 148.729 41.62H144.634V51H139.734V26.57H148.729C150.619 26.57 152.229 26.8967 153.559 27.55C154.889 28.2033 155.881 29.1017 156.534 30.245C157.211 31.3883 157.549 32.6833 157.549 34.13ZM148.519 37.665C149.872 37.665 150.876 37.3617 151.529 36.755C152.182 36.125 152.509 35.25 152.509 34.13C152.509 31.75 151.179 30.56 148.519 30.56H144.634V37.665H148.519ZM158.718 41.235C158.718 39.275 159.103 37.5367 159.873 36.02C160.666 34.5033 161.728 33.3367 163.058 32.52C164.411 31.7033 165.916 31.295 167.573 31.295C169.02 31.295 170.28 31.5867 171.353 32.17C172.45 32.7533 173.325 33.4883 173.978 34.375V31.61H178.913V51H173.978V48.165C173.348 49.075 172.473 49.8333 171.353 50.44C170.256 51.0233 168.985 51.315 167.538 51.315C165.905 51.315 164.411 50.895 163.058 50.055C161.728 49.215 160.666 48.0367 159.873 46.52C159.103 44.98 158.718 43.2183 158.718 41.235ZM173.978 41.305C173.978 40.115 173.745 39.1 173.278 38.26C172.811 37.3967 172.181 36.7433 171.388 36.3C170.595 35.8333 169.743 35.6 168.833 35.6C167.923 35.6 167.083 35.8217 166.313 36.265C165.543 36.7083 164.913 37.3617 164.423 38.225C163.956 39.065 163.723 40.0683 163.723 41.235C163.723 42.4017 163.956 43.4283 164.423 44.315C164.913 45.1783 165.543 45.8433 166.313 46.31C167.106 46.7767 167.946 47.01 168.833 47.01C169.743 47.01 170.595 46.7883 171.388 46.345C172.181 45.8783 172.811 45.225 173.278 44.385C173.745 43.5217 173.978 42.495 173.978 41.305ZM187.549 25.1V51H182.649V25.1H187.549ZM190.08 41.235C190.08 39.275 190.465 37.5367 191.235 36.02C192.028 34.5033 193.09 33.3367 194.42 32.52C195.773 31.7033 197.278 31.295 198.935 31.295C200.382 31.295 201.642 31.5867 202.715 32.17C203.812 32.7533 204.687 33.4883 205.34 34.375V31.61H210.275V51H205.34V48.165C204.71 49.075 203.835 49.8333 202.715 50.44C201.618 51.0233 200.347 51.315 198.9 51.315C197.267 51.315 195.773 50.895 194.42 50.055C193.09 49.215 192.028 48.0367 191.235 46.52C190.465 44.98 190.08 43.2183 190.08 41.235ZM205.34 41.305C205.34 40.115 205.107 39.1 204.64 38.26C204.173 37.3967 203.543 36.7433 202.75 36.3C201.957 35.8333 201.105 35.6 200.195 35.6C199.285 35.6 198.445 35.8217 197.675 36.265C196.905 36.7083 196.275 37.3617 195.785 38.225C195.318 39.065 195.085 40.0683 195.085 41.235C195.085 42.4017 195.318 43.4283 195.785 44.315C196.275 45.1783 196.905 45.8433 197.675 46.31C198.468 46.7767 199.308 47.01 200.195 47.01C201.105 47.01 201.957 46.7883 202.75 46.345C203.543 45.8783 204.173 45.225 204.64 44.385C205.107 43.5217 205.34 42.495 205.34 41.305ZM212.751 41.305C212.751 39.2983 213.159 37.5483 213.976 36.055C214.792 34.5383 215.924 33.3717 217.371 32.555C218.817 31.715 220.474 31.295 222.341 31.295C224.744 31.295 226.727 31.9017 228.291 33.115C229.877 34.305 230.939 35.985 231.476 38.155H226.191C225.911 37.315 225.432 36.6617 224.756 36.195C224.102 35.705 223.286 35.46 222.306 35.46C220.906 35.46 219.797 35.9733 218.981 37C218.164 38.0033 217.756 39.4383 217.756 41.305C217.756 43.1483 218.164 44.5833 218.981 45.61C219.797 46.6133 220.906 47.115 222.306 47.115C224.289 47.115 225.584 46.2283 226.191 44.455H231.476C230.939 46.555 229.877 48.2233 228.291 49.46C226.704 50.6967 224.721 51.315 222.341 51.315C220.474 51.315 218.817 50.9067 217.371 50.09C215.924 49.25 214.792 48.0833 213.976 46.59C213.159 45.0733 212.751 43.3117 212.751 41.305ZM252.04 40.885C252.04 41.585 251.994 42.215 251.9 42.775H237.725C237.842 44.175 238.332 45.2717 239.195 46.065C240.059 46.8583 241.12 47.255 242.38 47.255C244.2 47.255 245.495 46.4733 246.265 44.91H251.55C250.99 46.7767 249.917 48.3167 248.33 49.53C246.744 50.72 244.795 51.315 242.485 51.315C240.619 51.315 238.939 50.9067 237.445 50.09C235.975 49.25 234.82 48.0717 233.98 46.555C233.164 45.0383 232.755 43.2883 232.755 41.305C232.755 39.2983 233.164 37.5367 233.98 36.02C234.797 34.5033 235.94 33.3367 237.41 32.52C238.88 31.7033 240.572 31.295 242.485 31.295C244.329 31.295 245.974 31.6917 247.42 32.485C248.89 33.2783 250.022 34.41 250.815 35.88C251.632 37.3267 252.04 38.995 252.04 40.885ZM246.965 39.485C246.942 38.225 246.487 37.2217 245.6 36.475C244.714 35.705 243.629 35.32 242.345 35.32C241.132 35.32 240.105 35.6933 239.265 36.44C238.449 37.1633 237.947 38.1783 237.76 39.485H246.965Z" fill="white"/>
<path d="M19 20C29.4937 20 38 28.5063 38 39C38 49.4937 29.4937 58 19 58C8.5063 58 0 49.4937 0 39C0 28.5063 8.5063 20 19 20ZM20.9589 31.5881H15.9733C14.0961 31.5881 12.5742 33.0625 12.5742 34.8808V47.702L17.5047 43.0071H20.9589C24.2136 43.0071 26.8508 40.4516 26.8508 37.2976C26.8508 34.1436 24.2117 31.5881 20.9589 31.5881Z" fill="#795AFF"/>
</svg>
