<svg width="18" height="21" viewBox="0 0 18 21" fill="none" xmlns="http://www.w3.org/2000/svg">
<g clip-path="url(#clip0_25_120)">
<path d="M11.1428 16.0837H16.8571M18 18.2572L16.8571 16.0837L18 18.2572ZM10 18.2572L11.1428 16.0837L10 18.2572ZM11.1428 16.0837L14 10.4326L16.8571 16.0837H11.1428Z" stroke="white" stroke-width="2"/>
<path d="M5 2.6084L5.5 3.91249" stroke="white" stroke-width="2"/>
<path d="M0 4.78125H11" stroke="white" stroke-width="2"/>
<path d="M2 6.95508C2 6.95508 2.89475 9.67667 5.1316 11.1886C7.3684 12.7006 11 13.9102 11 13.9102" stroke="white" stroke-width="2"/>
<path d="M9 4.78125C9 4.78125 8.10525 8.35333 5.8684 10.3378C3.6316 12.3223 0 13.9099 0 13.9099" stroke="white" stroke-width="2"/>
</g>
<defs>
<clipPath id="clip0_25_120">
<rect width="18" height="20.8655" fill="white"/>
</clipPath>
</defs>
</svg>
